ply
format ascii 1.0
element vertex 11
property float x
property float y
property float z
property uchar diffuse_red
property uchar diffuse_green
property uchar diffuse_blue
end_header
0.317574 -4.75527e-009 -0.256287 255 0 255
0.6735 0.00325509 -1.21332 255 0 255
1.01293 0.0073677 -1.50634 255 0 255
0.706706 0.0100823 0.310126 255 0 255
1.77042 -0.0002221 0.58918 255 0 255
1.75568 -0.000426132 -1.97009 255 0 255
2.32048 0.00523715 -1.95474 255 0 255
2.24092 -4.51216e-008 -1.74147 255 0 255
2.74921 -0.00341863 -1.19306 255 0 255
2.97779 0.00337824 -0.57646 255 0 255
2.47657 -2.18744e-008 0.432535 255 0 255
