ply
format ascii 1.0
element vertex 11
property float x
property float y
property float z
property uchar diffuse_red
property uchar diffuse_green
property uchar diffuse_blue
end_header
0.526674 -0.00684103 -0.149189 255 0 255
0.868006 -0.000189585 -1.08483 255 0 255
1.20692 0.0045616 -1.36556 255 0 255
0.904326 2.6431e-009 0.403113 255 0 255
1.92873 -0.00808015 0.703226 255 0 255
1.93542 -4.85376e-008 -1.81423 255 0 255
2.48456 0.00710378 -1.79602 255 0 255
2.61873 -0.000427537 0.547619 255 0 255
3.18204 0.00107729 -0.463683 255 0 255
2.89457 6.27976e-008 -1.03545 255 0 255
2.42362 0.00219741 -1.59401 255 0 255
