ply
format ascii 1.0
element vertex 9
property float x
property float y
property float z
property uchar diffuse_red
property uchar diffuse_green
property uchar diffuse_blue
end_header
0.00677589 1.36543e-010 0.0245642 255 0 255
0.831876 -0.000874388 0.398131 255 0 255
0.246247 -0.0125189 0.0559863 255 0 255
-0.504393 -0.019349 0.0752665 255 0 255
1.04015 5.62445e-005 0.716098 255 0 255
-0.769128 -0.0274331 0.180826 255 0 255
-1.28518 -0.0558791 0.769964 255 0 255
-1.18558 6.73877e-009 1.34278 255 0 255
1.19179 -1.49563e-008 1.57273 0 255 0
