ply
format ascii 1.0
element vertex 11
property float x
property float y
property float z
property uchar diffuse_red
property uchar diffuse_green
property uchar diffuse_blue
end_header
0.146074 -0.0557789 0.283439 255 0 255
1.10738 -0.0636375 0.387965 255 0 255
-0.997511 -0.00285377 0.694679 255 0 255
-1.56723 -7.10025e-009 1.35308 255 0 255
-1.73348 -0.00580867 2.4168 255 0 255
-1.13561 0.00798967 3.52263 0 255 0
0.349361 -0.0674652 4.4301 255 0 255
1.4279 -0.0394837 3.81751 255 0 255
2.3604 3.98861e-009 2.14181 255 0 255
1.88145 1.81552e-009 0.852173 255 0 255
0.597831 0.097435 0.273637 0 255 0
