ply
format ascii 1.0
element vertex 17
property float x
property float y
property float z
property uchar diffuse_red
property uchar diffuse_green
property uchar diffuse_blue
end_header
-0.1397 -0.143556 0.0676838 255 0 255
-0.967922 -0.03059 -0.703795 0 255 0
0.345608 -0.0141884 -0.236879 255 0 255
-1.17261 -0.00473942 -1.14865 255 0 255
-1.26281 0.00478668 -1.49719 255 0 255
0.636296 -0.00317617 -0.325849 255 0 255
0.975661 1.21782e-009 -0.506408 255 0 255
1.69275 0.00652385 -1.63017 0 255 0
1.57985 -0.00642407 -1.3758 0 255 0
-0.826122 -7.75891e-009 -2.07031 255 0 255
-1.01424 -0.00556705 -1.88578 255 0 255
-0.209303 -0.00501777 -2.851 0 255 0
0.365877 0.00117097 -2.98999 255 0 255
0.69497 4.03766e-009 -2.91357 0 255 0
0.851729 -0.0012586 -2.68076 255 0 255
1.43065 0.00111112 -2.16637 255 0 255
1.69819 -0.00158269 -1.82301 255 0 255
