ply
format ascii 1.0
element vertex 17
property float x
property float y
property float z
property uchar diffuse_red
property uchar diffuse_green
property uchar diffuse_blue
end_header
-0.282295 -0.0805314 0.0928442 255 0 255
-0.906093 -0.062901 -0.562783 0 255 0
0.501363 -0.0679182 0.701667 255 0 255
2.37514 0.00749496 1.95209 255 0 255
3.25374 -0.00430085 1.9506 255 0 255
-0.447223 -0.0056695 -1.44363 255 0 255
-0.963505 -0.0217564 -2.13758 255 0 255
0.716857 -0.0655097 -5.70655 255 0 255
2.12623 -0.00438876 -4.83138 255 0 255
2.76161 -1.36892e-008 -5.58091 255 0 255
3.79878 0.0193139 -5.72076 255 0 255
5.95818 -5.58247e-009 -3.74925 255 0 255
6.2495 0.0409233 -2.8473 0 255 0
6.34986 0.102706 -2.14222 255 0 255
6.42799 0.0894612 -0.917313 255 0 255
6.48313 0.0712609 -0.180261 255 0 255
4.74736 2.04039e-008 2.09173 0 255 0
