ply
format ascii 1.0
element vertex 14
property float x
property float y
property float z
end_header
-0.282295 -0.0805314 0.0928442
0.501363 -0.0679182 0.701667
2.37514 0.00749496 1.95209
3.25374 -0.00430085 1.9506
-0.447223 -0.0056695 -1.44363
-0.963505 -0.0217564 -2.13758
0.716857 -0.0655097 -5.70655
2.12623 -0.00438876 -4.83138
2.76161 -1.36892e-008 -5.58091
3.79878 0.0193139 -5.72076
5.95818 -5.58247e-009 -3.74925
6.34986 0.102706 -2.14222
6.42799 0.0894612 -0.917313
6.48313 0.0712609 -0.180261
