ply
format ascii 1.0
element vertex 17
property float x
property float y
property float z
property uchar diffuse_red
property uchar diffuse_green
property uchar diffuse_blue
end_header
-0.386986 -0.0867559 0.363635 255 0 255
-1.281 -0.0855999 -0.353569 255 0 255
-2.04916 -0.0720965 -1.10494 255 0 255
1.7887 -0.0264701 1.82208 0 255 0
2.81674 -0.065569 1.84872 255 0 255
-1.5264 -0.00328848 -2.13162 255 0 255
-2.11606 7.51888e-010 -2.93922 255 0 255
-0.0991021 0.00270675 -6.9532 255 0 255
1.46905 -2.39107e-008 -6.04608 255 0 255
2.209 0.0025798 -6.80825 255 0 255
3.40765 0.0223393 -7.05804 255 0 255
5.88212 -0.0408844 -4.75781 255 0 255
6.23059 1.38972e-008 -3.72273 0 255 0
6.38107 0.0447867 -2.9081 255 0 255
6.42129 0.0311152 -1.42831 255 0 255
6.50116 0.00964692 -0.543733 255 0 255
4.3761 -0.0181528 1.93257 0 255 0
