ply
format ascii 1.0
element vertex 9
property float x
property float y
property float z
property uchar diffuse_red
property uchar diffuse_green
property uchar diffuse_blue
end_header
-0.129208 -5.63047e-010 -0.0752564 255 0 255
-1.115 -3.37072e-009 0.22244 255 0 255
-0.387163 -0.00624635 0.189739 255 0 255
-0.0119049 0.0137781 -0.777381 0 255 0
-1.43339 0.0124743 -0.102963 255 0 255
-1.34983 0.00125342 -0.474338 255 0 255
-0.957399 1.97081e-009 -1.17648 255 0 255
-0.657987 0.000343597 -1.12315 255 0 255
-0.0410494 -0.000248416 -0.8921 0 255 0
