ply
format ascii 1.0
element vertex 10
property float x
property float y
property float z
property uchar diffuse_red
property uchar diffuse_green
property uchar diffuse_blue
end_header
0.123889 0.00023506 0.249002 255 0 255
1.04274 5.70501e-011 0.579741 255 0 255
0.887288 -0.00043073 0.237355 255 0 255
0.456817 4.00959e-009 0.156875 255 0 255
1.12685 -0.00282779 0.976031 255 0 255
0.856886 -0.0303858 1.58083 255 0 255
0.224044 -0.0112168 1.66987 255 0 255
0.0586895 -0.0039376 0.287404 0 255 0
-0.198187 -1.48422e-008 1.17275 255 0 255
-0.141385 0.00905168 0.70518 255 0 255
