ply
format ascii 1.0
element vertex 11
property float x
property float y
property float z
property uchar diffuse_red
property uchar diffuse_green
property uchar diffuse_blue
end_header
0.130592 -0.0058363 0.386769 255 0 255
1.0892 9.81841e-010 0.555028 255 0 255
-1.22224 -0.0404839 0.63613 255 0 255
-1.79181 0.0476828 1.48795 255 0 255
-2.11006 8.04239e-009 2.71596 255 0 255
-1.39973 -0.0112207 4.07299 0 255 0
0.403675 -0.0575808 4.79775 255 0 255
1.47313 2.29224e-008 4.03093 255 0 255
2.34671 0.0414836 2.29308 255 0 255
1.33889 0.268738 1.46489 255 0 255
0.5346 0.181866 0.564309 0 255 0
