ply
format ascii 1.0
element vertex 11
property float x
property float y
property float z
property uchar diffuse_red
property uchar diffuse_green
property uchar diffuse_blue
end_header
0.140117 0.000194297 0.229381 255 0 255
1.07248 0.00692268 0.561899 255 0 255
0.917053 0.00290751 0.213869 255 0 255
0.476479 2.4823e-009 0.125684 255 0 255
1.17678 0.000751598 0.977462 255 0 255
0.812953 -2.11151e-008 1.5682 0 255 0
0.189239 0.0102349 1.64839 0 255 0
-0.238205 -8.4636e-012 1.11233 255 0 255
-0.153564 -0.010769 0.618155 255 0 255
0.185196 0.0193034 0.38763 255 0 255
0.602629 -0.0545753 -0.0714663 255 0 255
