ply
format ascii 1.0
element vertex 11
property float x
property float y
property float z
property uchar diffuse_red
property uchar diffuse_green
property uchar diffuse_blue
end_header
0.115637 2.02081e-009 0.222911 255 0 255
1.02513 2.52987e-009 0.547634 255 0 255
0.876085 -0.00137284 0.204617 255 0 255
0.44446 -2.2311e-009 0.131977 255 0 255
1.11886 -0.0062334 0.947381 255 0 255
0.828769 -0.0444159 1.59135 0 255 0
0.201292 -0.00236708 1.56007 255 0 255
-0.181874 0.000630478 1.09721 255 0 255
-0.105241 0.0117209 0.654273 255 0 255
0.0774372 0.00627503 0.288766 255 0 255
0.49256 0.00680415 0.207984 255 0 255
