ply
format ascii 1.0
element vertex 11
property float x
property float y
property float z
property uchar diffuse_red
property uchar diffuse_green
property uchar diffuse_blue
end_header
0.168579 0.00185319 -0.721434 255 0 255
-0.217033 0.00273139 -1.52136 255 0 255
-0.117329 1.20341e-008 -1.91616 255 0 255
0.73408 2.25808e-009 -0.292815 255 0 255
1.88945 -0.0107754 -0.561555 255 0 255
0.322387 -0.00309046 -2.49002 255 0 255
0.704946 -3.40181e-008 -2.64995 255 0 255
2.13961 -0.00917541 -1.06742 255 0 255
2.01689 -0.000153171 -2.03878 255 0 255
1.62983 0.000198486 -2.47498 255 0 255
0.828205 0.00578752 -2.72435 0 255 0
