ply
format ascii 1.0
element vertex 10
property float x
property float y
property float z
property uchar diffuse_red
property uchar diffuse_green
property uchar diffuse_blue
end_header
-0.370691 -0.0299593 -0.0517172 255 0 255
-1.10123 4.32946e-009 0.287526 255 0 255
-1.36749 0.0019192 0.174813 255 0 255
-0.241946 -0.0326457 -0.297553 255 0 255
-0.493328 0.0172137 -1.08724 255 0 255
-0.600675 7.92996e-009 -1.37709 255 0 255
-1.53035 0.0406243 -1.56264 255 0 255
-1.72441 6.50547e-008 -0.60167 255 0 255
-1.61021 0.000614347 -0.842104 255 0 255
-0.985839 0.0554233 -1.2636 255 0 255
