ply
format ascii 1.0
element vertex 10
property float x
property float y
property float z
property uchar diffuse_red
property uchar diffuse_green
property uchar diffuse_blue
end_header
0.119585 2.09472e-009 0.217434 255 0 255
1.04604 -0.000153154 0.562282 255 0 255
0.899068 0.000505417 0.210499 255 0 255
0.459241 0.000162165 0.120518 255 0 255
1.10564 1.18187e-009 0.953439 255 0 255
0.835636 -0.0347615 1.53037 0 255 0
0.255785 -7.33547e-009 1.55245 255 0 255
-0.144473 -0.00289065 1.13241 255 0 255
-0.144194 0.00848318 0.676917 255 0 255
0.113833 0.0127339 0.363907 255 0 255
