ply
format ascii 1.0
element vertex 10
property float x
property float y
property float z
property uchar diffuse_red
property uchar diffuse_green
property uchar diffuse_blue
end_header
-0.361307 -0.00105845 -0.0294036 255 0 255
-1.1312 0.0143438 0.307625 255 0 255
-1.39714 0.00109958 0.183023 255 0 255
-0.236125 -4.40598e-009 -0.284598 255 0 255
-0.499558 0.00772559 -1.09046 255 0 255
-0.614594 -0.0132495 -1.36542 255 0 255
-1.50774 -0.000753555 -1.51063 255 0 255
-1.70147 -5.891e-009 -0.594728 255 0 255
-1.57311 0.0253513 -0.810094 255 0 255
-0.995743 -1.98383e-008 -1.25254 255 0 255
